<svg version="1.1" id="Layer_1" xmlns="http://www.w3.org/2000/svg" xmlns:xlink="http://www.w3.org/1999/xlink" x="0px" y="0px"
	 width="100%" viewBox="0 0 191 151" enable-background="new 0 0 191 151" xml:space="preserve">
<path fill="none" opacity="1.000000" stroke="none"
	d="
M134.000000,152.000000 
	C89.333336,152.000000 45.166672,152.000000 1.000006,152.000000 
	C1.000004,101.666672 1.000004,51.333344 1.000002,1.000013 
	C64.666656,1.000008 128.333313,1.000008 191.999969,1.000004 
	C191.999985,51.333324 191.999985,101.666649 192.000000,151.999985 
	C172.833328,152.000000 153.666672,152.000000 134.000000,152.000000 
M74.865387,90.308479 
	C75.098602,94.200127 75.331818,98.091782 75.851219,102.878487 
	C75.755203,107.591354 75.659187,112.304222 74.868919,117.306755 
	C75.099350,121.198990 75.329773,125.091225 75.841606,129.699738 
	C76.514915,132.190735 76.562981,136.381439 77.963150,136.896500 
	C86.955399,140.204315 96.243980,142.706558 106.158821,145.691315 
	C106.158821,143.250305 106.158829,141.476700 106.158821,139.703094 
	C106.158638,106.716217 106.158218,73.729340 106.159065,40.742462 
	C106.159096,39.409721 106.050690,38.063248 106.200882,36.746914 
	C106.592255,33.316555 108.991188,32.068451 111.110977,34.623627 
	C113.047882,36.958363 114.552574,40.396400 114.637794,43.393986 
	C115.011681,56.544830 114.754036,69.712700 114.870110,82.873116 
	C114.882820,84.314888 115.391022,86.437988 116.405457,87.077515 
	C125.075760,92.543457 137.979172,88.766701 142.533646,79.652351 
	C153.355621,57.995590 144.114044,33.285404 121.351509,25.057133 
	C107.443398,20.029587 93.015656,16.438337 78.812752,12.230837 
	C78.068459,12.010345 77.244156,12.059937 75.873741,11.927353 
	C75.873741,18.878590 75.900002,25.484549 75.868790,32.090237 
	C75.777573,51.399254 75.663422,70.708168 74.865387,90.308479 
M138.604050,133.040970 
	C151.369644,127.809799 164.261597,122.856422 176.810608,117.149094 
	C179.887863,115.749557 183.793976,111.861595 183.760254,109.162148 
	C183.727448,106.536148 179.574707,103.090248 176.465607,101.515457 
	C156.299149,91.300926 135.387878,91.873100 114.275528,98.253693 
	C113.168129,98.588379 111.500443,99.685555 111.457817,100.499229 
	C111.195770,105.501648 111.326462,110.524628 111.326462,116.001831 
	C114.201660,114.792603 115.981972,113.802948 117.890228,113.281288 
	C128.444016,110.396172 138.980637,107.415977 149.634995,104.952095 
	C152.541016,104.280067 155.833313,105.278450 158.948334,105.510239 
	C159.092773,106.286728 159.237228,107.063217 159.381668,107.839706 
	C156.110809,109.481995 152.946762,111.399864 149.549637,112.716316 
	C138.069611,117.165070 126.490059,121.356667 114.997879,125.774857 
	C113.614532,126.306686 111.559586,127.548409 111.478432,128.590561 
	C111.102051,133.424011 111.311981,138.303101 111.311981,143.685974 
	C120.850288,139.953033 129.359055,136.623016 138.604050,133.040970 
M45.582447,120.355385 
	C42.425659,120.068550 38.853889,120.768059 36.659935,116.237434 
	C39.001205,115.047134 41.052906,113.716148 43.294167,112.916435 
	C51.284580,110.065361 59.372021,107.484131 67.340111,104.574478 
	C68.789505,104.045219 70.792763,102.551750 70.920479,101.333565 
	C71.363029,97.112312 71.091171,92.816162 71.091171,87.365555 
	C57.749874,91.924484 45.267971,95.909096 33.012966,100.499458 
	C27.152193,102.694733 21.322826,105.462868 16.199646,109.011574 
	C10.117428,113.224586 10.605040,118.633194 16.818459,122.615456 
	C19.298586,124.205009 22.148611,125.747658 24.993006,126.144180 
	C35.659637,127.631157 46.375587,128.860870 57.110615,129.714783 
	C61.622433,130.073669 66.227852,129.255783 70.862076,128.968414 
	C70.862076,123.753510 70.862076,119.318909 70.862076,115.188515 
	C62.627014,116.932098 54.559990,118.640106 45.582447,120.355385 
z"/>
<path fill="" opacity="1.000000" stroke="none"
	d="
M75.563171,117.017090 
	C75.659187,112.304222 75.755203,107.591354 75.832382,101.985992 
	C75.728447,97.401375 75.643356,93.709244 75.558258,90.017120 
	C75.663422,70.708168 75.777573,51.399254 75.868790,32.090237 
	C75.900002,25.484549 75.873741,18.878590 75.873741,11.927353 
	C77.244156,12.059937 78.068459,12.010345 78.812752,12.230837 
	C93.015656,16.438337 107.443398,20.029587 121.351509,25.057133 
	C144.114044,33.285404 153.355621,57.995590 142.533646,79.652351 
	C137.979172,88.766701 125.075760,92.543457 116.405457,87.077515 
	C115.391022,86.437988 114.882820,84.314888 114.870110,82.873116 
	C114.754036,69.712700 115.011681,56.544830 114.637794,43.393986 
	C114.552574,40.396400 113.047882,36.958363 111.110977,34.623627 
	C108.991188,32.068451 106.592255,33.316555 106.200882,36.746914 
	C106.050690,38.063248 106.159096,39.409721 106.159065,40.742462 
	C106.158218,73.729340 106.158638,106.716217 106.158821,139.703094 
	C106.158829,141.476700 106.158821,143.250305 106.158821,145.691315 
	C96.243980,142.706558 86.955399,140.204315 77.963150,136.896500 
	C76.562981,136.381439 76.514915,132.190735 75.826073,128.896851 
	C75.728081,124.401680 75.645622,120.709389 75.563171,117.017090 
z"/>
<path fill="#0B0B0B" opacity="1.000000" stroke="none"
	d="
M138.235931,133.166992 
	C129.359055,136.623016 120.850288,139.953033 111.311981,143.685974 
	C111.311981,138.303101 111.102051,133.424011 111.478432,128.590561 
	C111.559586,127.548409 113.614532,126.306686 114.997879,125.774857 
	C126.490059,121.356667 138.069611,117.165070 149.549637,112.716316 
	C152.946762,111.399864 156.110809,109.481995 159.381668,107.839706 
	C159.237228,107.063217 159.092773,106.286728 158.948334,105.510239 
	C155.833313,105.278450 152.541016,104.280067 149.634995,104.952095 
	C138.980637,107.415977 128.444016,110.396172 117.890228,113.281288 
	C115.981972,113.802948 114.201660,114.792603 111.326462,116.001831 
	C111.326462,110.524628 111.195770,105.501648 111.457817,100.499229 
	C111.500443,99.685555 113.168129,98.588379 114.275528,98.253693 
	C135.387878,91.873100 156.299149,91.300926 176.465607,101.515457 
	C179.574707,103.090248 183.727448,106.536148 183.760254,109.162148 
	C183.793976,111.861595 179.887863,115.749557 176.810608,117.149094 
	C164.261597,122.856422 151.369644,127.809799 138.235931,133.166992 
z"/>
<path fill="#0B0B0B" opacity="1.000000" stroke="none"
	d="
M46.037704,120.351746 
	C54.559990,118.640106 62.627014,116.932098 70.862076,115.188515 
	C70.862076,119.318909 70.862076,123.753510 70.862076,128.968414 
	C66.227852,129.255783 61.622433,130.073669 57.110615,129.714783 
	C46.375587,128.860870 35.659637,127.631157 24.993006,126.144180 
	C22.148611,125.747658 19.298586,124.205009 16.818459,122.615456 
	C10.605040,118.633194 10.117428,113.224586 16.199646,109.011574 
	C21.322826,105.462868 27.152193,102.694733 33.012966,100.499458 
	C45.267971,95.909096 57.749874,91.924484 71.091171,87.365555 
	C71.091171,92.816162 71.363029,97.112312 70.920479,101.333565 
	C70.792763,102.551750 68.789505,104.045219 67.340111,104.574478 
	C59.372021,107.484131 51.284580,110.065361 43.294167,112.916435 
	C41.052906,113.716148 39.001205,115.047134 36.659935,116.237434 
	C38.853889,120.768059 42.425659,120.068550 46.037704,120.351746 
z"/>
<path fill="#FFFFFF" opacity="1.000000" stroke="none"
	d="
M75.211823,90.162796 
	C75.643356,93.709244 75.728447,97.401375 75.689285,101.538467 
	C75.331818,98.091782 75.098602,94.200127 75.211823,90.162796 
z"/>
<path fill="#FFFFFF" opacity="1.000000" stroke="none" 
	d="
M75.216042,117.161926 
	C75.645622,120.709389 75.728081,124.401680 75.685371,128.538727 
	C75.329773,125.091225 75.099350,121.198990 75.216042,117.161926 
z"/>
</svg>