<svg version="1.1" id="Layer_1" xmlns="http://www.w3.org/2000/svg" xmlns:xlink="http://www.w3.org/1999/xlink" x="0px" y="0px"
	 width="100%" viewBox="0 0 165 150" enable-background="new 0 0 165 150" xml:space="preserve">
<path fill="none" opacity="1.000000" stroke="none"
	d="
M94.000000,151.000000 
	C62.666672,151.000000 31.833342,151.000000 1.000008,151.000000 
	C1.000005,101.000008 1.000005,51.000019 1.000003,1.000022 
	C55.999985,1.000015 110.999969,1.000015 165.999969,1.000007 
	C165.999969,50.999981 165.999969,100.999962 165.999985,150.999969 
	C142.166672,151.000000 118.333336,151.000000 94.000000,151.000000 
M55.460526,90.976112 
	C49.227940,100.592896 43.054432,110.248825 36.724564,119.801132 
	C34.967243,122.453064 35.325603,124.457497 37.868065,126.008949 
	C45.481598,130.654892 52.686653,136.461990 60.904171,139.534195 
	C85.537033,148.743439 115.277214,141.283218 130.764557,122.882599 
	C118.702972,99.447357 102.474365,79.141014 82.325836,60.408150 
	C73.222023,70.754677 64.568466,80.589478 55.460526,90.976112 
M40.877171,29.565281 
	C38.531929,27.511909 36.791740,28.060184 34.628933,30.267170 
	C12.552317,52.794792 9.799924,89.495941 28.404686,115.309494 
	C29.108681,116.286263 29.997677,117.129700 31.322971,118.624687 
	C37.460911,91.560509 47.196667,67.062164 66.559723,46.462620 
	C57.861141,40.714668 49.694336,35.318111 40.877171,29.565281 
M121.439430,79.101250 
	C126.125473,91.964073 130.811508,104.826904 135.402237,117.428116 
	C158.256241,91.706108 152.839798,47.679424 127.598267,27.619263 
	C118.428703,33.766674 109.110069,40.014011 100.716469,45.641201 
	C107.863647,57.101208 114.506248,67.752159 121.439430,79.101250 
M81.525848,9.728537 
	C69.570129,9.942696 58.544868,13.142256 47.838890,19.731003 
	C54.223564,21.482868 59.932304,22.629236 65.315948,24.644197 
	C70.737076,26.673182 75.767296,29.727840 81.122841,31.964155 
	C82.444031,32.515842 84.505333,31.975080 85.982300,31.355055 
	C92.100067,28.786835 98.017693,25.711655 104.219711,23.384768 
	C108.461922,21.793163 113.052628,21.130432 118.340881,19.845015 
	C106.757004,12.871984 95.118729,9.595479 81.525848,9.728537 
z"/>
<path fill="#040404" opacity="1.000000" stroke="none"
	d="
M55.687721,90.700195 
	C64.568466,80.589478 73.222023,70.754677 82.325836,60.408150 
	C102.474365,79.141014 118.702972,99.447357 130.764557,122.882599 
	C115.277214,141.283218 85.537033,148.743439 60.904171,139.534195 
	C52.686653,136.461990 45.481598,130.654892 37.868065,126.008949 
	C35.325603,124.457497 34.967243,122.453064 36.724564,119.801132 
	C43.054432,110.248825 49.227940,100.592896 55.687721,90.700195 
z"/>
<path fill="#060606" opacity="1.000000" stroke="none"
	d="
M41.202351,29.743420 
	C49.694336,35.318111 57.861141,40.714668 66.559723,46.462620 
	C47.196667,67.062164 37.460911,91.560509 31.322971,118.624687 
	C29.997677,117.129700 29.108681,116.286263 28.404686,115.309494 
	C9.799924,89.495941 12.552317,52.794792 34.628933,30.267170 
	C36.791740,28.060184 38.531929,27.511909 41.202351,29.743420 
z"/>
<path fill="#060606" opacity="1.000000" stroke="none"
	d="
M121.294144,78.752182 
	C114.506248,67.752159 107.863647,57.101208 100.716469,45.641201 
	C109.110069,40.014011 118.428703,33.766674 127.598267,27.619263 
	C152.839798,47.679424 158.256241,91.706108 135.402237,117.428116 
	C130.811508,104.826904 126.125473,91.964073 121.294144,78.752182 
z"/>
<path fill="#0B0B0B" opacity="1.000000" stroke="none"
	d="
M82.017120,9.726459 
	C95.118729,9.595479 106.757004,12.871984 118.340881,19.845015 
	C113.052628,21.130432 108.461922,21.793163 104.219711,23.384768 
	C98.017693,25.711655 92.100067,28.786835 85.982300,31.355055 
	C84.505333,31.975080 82.444031,32.515842 81.122841,31.964155 
	C75.767296,29.727840 70.737076,26.673182 65.315948,24.644197 
	C59.932304,22.629236 54.223564,21.482868 47.838890,19.731003 
	C58.544868,13.142256 69.570129,9.942696 82.017120,9.726459 
z"/>
</svg>