<svg version="1.1" id="Layer_1" xmlns="http://www.w3.org/2000/svg" xmlns:xlink="http://www.w3.org/1999/xlink" x="0px" y="0px"
	 width="100%" viewBox="0 0 427 240" enable-background="new 0 0 427 240" xml:space="preserve">
<path fill="none" id="Right_Outer_Cognition" opacity="1.000000" stroke="#000000" stroke-linecap="round" stroke-linejoin="round" stroke-width="3.000000"
	d="
M348.500000,231.500000 
	C348.625732,228.411194 347.777222,225.809723 345.535309,223.466232 
	C334.125427,211.539444 322.881226,199.454193 311.475494,187.523438 
	C307.158997,183.008270 303.468536,177.925674 298.530609,173.961884 
	C290.884216,167.824005 282.048828,165.152298 272.499420,165.062622 
	C251.167969,164.862305 229.824509,164.626236 208.503036,165.128952 
	C193.830200,165.474915 179.160843,165.621475 164.501328,165.408936 
	C147.092621,165.156509 133.920456,172.355316 123.421616,185.939423 
	C114.247688,197.809265 104.417908,209.170349 94.024597,220.023560 
	C91.041069,223.139114 88.450645,226.596954 86.477669,230.488678 
	C85.536575,232.344971 85.674484,233.949219 86.860237,235.533890 
	C92.344559,234.213257 96.312752,230.604782 99.926163,226.927444 
	C111.036850,215.620239 120.281357,202.898575 128.078964,189.044434 
	C133.993164,178.536560 143.689743,173.419800 155.498169,171.984909 
	C161.657211,171.236496 167.831238,171.544632 174.000061,171.509384 
	C206.666611,171.322693 239.333496,171.193466 271.999908,170.986969 
	C285.292175,170.902954 295.621185,176.624054 303.475677,187.018372 
	C313.550598,200.351089 322.421478,214.703323 335.555054,225.432602 
	C339.004425,228.250534 342.114777,231.269592 347.470245,231.800201 
	C355.011566,232.547348 359.637970,228.131561 364.382996,224.353058 
	C374.109558,216.607697 378.258392,205.672241 379.513367,193.501373 
	C381.132416,177.799301 377.713959,162.682739 374.541138,147.491409 
	C369.768951,124.642227 363.177460,102.337067 354.967804,80.512108 
	C349.182404,65.131805 343.148743,49.826611 334.937164,35.536106 
	C332.163300,30.708776 329.047394,25.639492 324.384216,22.682606 
	C318.704590,19.081207 312.334717,16.358948 305.963898,14.101932 
	C293.895233,9.826322 281.267792,8.850040 268.503204,8.407681 
	C241.003937,7.454686 213.503159,7.413099 186.000336,7.562315 
	C176.831528,7.612060 167.606064,7.324694 158.513046,7.767690 
	C141.360840,8.603314 124.160721,10.576665 109.034805,20.055536 
	C107.718010,20.880722 106.535652,21.539520 105.000000,21.500000 
"/>
<path fill="none" id="Left_Outer_Cognition" opacity="1.000000" stroke="#000000" stroke-linecap="round" stroke-linejoin="round" stroke-width="3.000000"
	d="
M157.500000,7.000000 
	C156.494186,4.175392 154.489044,3.118435 151.502716,2.951471 
	C134.602905,2.006618 118.595711,5.154576 106.759605,17.744074 
	C99.630638,25.326813 93.305374,34.210655 89.049049,44.021282 
	C80.371948,64.021591 71.843819,84.098076 65.516808,105.005089 
	C58.369629,128.622253 51.369667,152.409302 49.261284,177.022385 
	C47.353001,199.299576 52.512638,219.746521 73.047455,232.926056 
	C76.997269,235.461105 81.365608,238.092377 86.500000,235.500000 
"/>
<path fill="none" class="Right_Stick" opacity="1.000000" stroke="#000000" stroke-linecap="round" stroke-linejoin="round" stroke-width="3.000000"
	d="
M260.500000,93.500000 
	C269.096436,94.283714 276.147095,97.770317 280.470001,105.516731 
	C285.445923,114.433289 284.350250,126.629837 274.475464,134.469070 
	C266.454376,140.836700 253.828873,140.858963 245.998291,134.001953 
	C238.216324,127.187508 235.948166,118.556915 239.134109,109.044914 
	C242.131668,100.095306 248.741562,94.769157 258.498688,93.983803 
	C259.008820,93.942749 259.500000,93.666672 260.000000,93.500008 
"/>
<path fill="none" id="LB_top" opacity="1.000000" stroke="#000000" stroke-linecap="round" stroke-linejoin="round" stroke-width="3.000000"
	d="
M323.500000,21.500000 
	C323.013123,17.217678 319.534912,15.571135 316.505585,13.491861 
	C304.884766,5.515500 291.712830,3.278586 278.000061,2.997228 
	C274.735229,2.930240 272.560516,4.402210 271.500000,7.500000 
"/>
<path fill="none" id="View" opacity="1.000000" stroke="#000000" stroke-linecap="round" stroke-linejoin="round" stroke-width="3.000000"
	d="
M181.500000,64.500000 
	C182.322983,67.753136 184.006180,70.416000 187.511292,70.921730 
	C190.073837,71.291473 192.543640,71.224960 194.619339,68.594154 
	C196.612778,66.067581 197.199173,63.469673 195.867752,61.073479 
	C194.419754,58.467495 192.108261,56.082142 188.502090,56.517281 
	C185.182053,56.917889 183.082840,58.894268 182.008270,62.002857 
	C181.784622,62.649826 181.666672,63.333336 181.500015,64.000000 
"/>
<path fill="none" id="D_Pad" opacity="1.000000" stroke="#000000" stroke-linecap="round" stroke-linejoin="round" stroke-width="3.000000"
	d="
M193.500000,131.500000 
	C191.613297,139.094635 186.490158,143.851578 179.456680,146.379471 
	C176.128296,147.575699 172.918747,149.250809 168.996109,149.146698 
	C163.539185,149.001877 158.288223,147.502502 154.173294,144.741699 
	C149.367889,141.517624 145.135269,137.533707 143.509888,130.615143 
	C142.274216,125.355415 141.186722,120.731735 142.464890,115.491440 
	C144.284546,108.031181 148.173111,102.254463 154.991653,98.484909 
	C170.056396,90.156540 189.851974,97.644325 193.759369,112.933716 
	C195.418228,119.424767 197.147202,125.110573 193.000000,131.000000 
"/>
<path fill="none" class="D_Pad_Line" opacity="1.000000" stroke="#000000" stroke-linecap="round" stroke-linejoin="round" stroke-width="3.000000"
	d="
M193.000000,112.500000 
	C190.724625,113.478096 188.331711,112.964195 185.999893,112.973312 
	C172.166779,113.027382 158.333328,113.000000 144.500000,113.000000 
"/>
<path fill="none" class="D_Pad_Line" opacity="1.000000" stroke="#000000" stroke-linecap="round" stroke-linejoin="round" stroke-width="3.000000"
	d="
M192.500000,130.500000 
	C176.500000,130.500000 160.500000,130.500000 144.500000,130.500000 
"/>
<path fill="none" class="D_Pad_Line" opacity="1.000000" stroke="#000000" stroke-linecap="round" stroke-linejoin="round" stroke-width="3.000000"
	d="
M177.500000,113.500000 
	C176.678329,124.500000 176.670395,135.500000 177.500000,146.500000 
"/>
<path fill="none" class="D_Pad_Line" opacity="1.000000" stroke="#000000" stroke-linecap="round" stroke-linejoin="round" stroke-width="3.000000"
	d="
M159.000000,98.000000 
	C160.122162,106.481262 159.296783,115.000648 159.469177,123.500626 
	C159.617828,130.830933 159.500000,138.166672 159.500000,145.500000 
"/>
<path fill="none" class="D_Pad_Line" opacity="1.000000" stroke="#000000" stroke-linecap="round" stroke-linejoin="round" stroke-width="3.000000"
	d="
M177.000000,97.500000 
	C177.243057,102.497452 176.455612,107.529259 177.500000,112.500000 
"/>
<path fill="none" id="A" opacity="1.000000" stroke="#000000" stroke-linecap="round" stroke-linejoin="round" stroke-width="3.000000"
	d="
M302.500000,75.000000 
	C298.637787,75.898720 295.102753,76.970848 292.923187,80.958008 
	C289.533081,87.159714 291.259583,94.157036 297.500000,97.500008 
	C302.928650,100.408104 309.863678,97.947296 313.000000,92.000000 
	C316.270844,85.797585 314.029694,79.422935 307.490997,76.520287 
	C306.052521,75.881714 304.500000,75.500000 303.000000,75.000000 
"/>
<path fill="none" id="Menu" opacity="1.000000" stroke="#000000" stroke-linecap="round" stroke-linejoin="round" stroke-width="3.000000"
	d="
M239.000000,56.500000 
	C235.646591,57.214371 232.876816,58.697300 232.545975,62.503994 
	C232.307632,65.246460 232.696671,67.641502 235.409393,69.623970 
	C238.039124,71.545776 240.539078,71.376015 242.962433,70.406128 
	C246.076843,69.159653 247.308990,66.330437 246.980560,63.001919 
	C246.624054,59.388836 244.225174,57.523457 240.993912,56.519585 
	C240.537918,56.377926 240.000000,56.500000 239.500000,56.500000 
"/>
<path fill="none" id="B" opacity="1.000000" stroke="#000000" stroke-linecap="round" stroke-linejoin="round" stroke-width="3.000000"
	d="
M325.500000,53.000000 
	C314.386047,54.963657 312.651550,64.862656 316.075623,70.957512 
	C318.614380,75.476547 324.188599,77.328156 329.000000,76.000000 
	C334.017181,74.615036 337.507355,70.737091 338.000000,66.000000 
	C338.501740,61.175488 335.464569,56.208851 330.482208,54.040913 
	C329.099030,53.439056 327.500000,53.333332 326.000000,53.000000 
"/>
<path fill="none" id="Share" opacity="1.000000" stroke="#000000" stroke-linecap="round" stroke-linejoin="round" stroke-width="3.000000"
	d="
M210.000000,77.500000 
	C206.422394,78.196709 204.367966,80.138138 205.021637,83.996330 
	C205.691315,87.948997 208.547577,88.684265 212.000916,88.519226 
	C214.162659,88.415924 216.334015,88.465332 218.499847,88.507912 
	C221.970810,88.576149 224.231232,87.125603 224.471191,83.498093 
	C224.721420,79.715012 222.113739,78.070404 218.986267,77.589233 
	C216.218460,77.163391 213.333328,77.500000 210.500000,77.500000 
"/>
<path fill="none" id="X" opacity="1.000000" stroke="#000000" stroke-linecap="round" stroke-linejoin="round" stroke-width="3.000000"
	d="
M278.500000,53.000000 
	C269.377930,55.469982 265.558838,63.788723 270.099487,70.936806 
	C273.535522,76.345985 277.930176,77.563034 283.490631,75.967400 
	C288.042542,74.661186 292.133911,68.948845 292.000000,64.500000 
	C291.847412,59.429173 287.074829,54.177086 281.495270,53.022896 
	C280.696106,52.857586 279.833344,53.000000 279.000000,53.000000 
"/>
<path fill="none" class="Left_Stick" opacity="1.000000" stroke="#000000" stroke-linecap="round" stroke-linejoin="round" stroke-width="3.000000"
	d="
M123.500000,46.000000 
	C114.626564,47.649563 108.634338,52.480320 106.506630,61.501564 
	C104.196480,71.296333 112.032173,80.564049 119.481964,82.567078 
	C128.631866,85.027206 137.606262,80.814468 141.584503,72.540627 
	C146.898163,61.489372 139.935074,46.681870 124.000000,46.000000 
"/>
<path fill="none" class="Left_Stick" opacity="1.000000" stroke="#000000" stroke-linecap="round" stroke-linejoin="round" stroke-width="3.000000"
	d="
M122.500000,42.000000 
	C112.337479,43.838074 105.431541,49.501553 102.535370,59.510235 
	C99.834381,68.844391 105.282730,81.312866 114.553391,85.378258 
	C125.343987,90.110176 135.945892,87.378670 142.531158,79.024559 
	C148.303391,71.701881 149.124634,63.771851 145.430832,55.531006 
	C141.162216,46.007690 133.250168,41.916393 123.000000,42.000000 
"/>
<path fill="none" id="Y" opacity="1.000000" stroke="#000000" stroke-linecap="round" stroke-linejoin="round" stroke-width="3.000000"
	d="
M301.500000,31.000000 
	C298.094421,32.189316 294.788605,33.088192 292.896881,36.949486 
	C289.596985,43.685120 291.392731,50.361572 298.000000,53.499992 
	C303.792297,56.251305 311.611328,53.074841 313.999969,46.999989 
	C316.304901,41.138180 312.430481,33.568913 305.989471,31.533329 
	C304.729309,31.135077 303.333344,31.166666 302.000000,31.000000 
"/>
<path fill="none" id="XBOX" opacity="1.000000" stroke="#000000" stroke-linecap="round" stroke-linejoin="round" stroke-width="3.000000"
	d="
M212.000000,18.500000 
	C201.385574,23.079033 198.858551,32.727707 206.500000,39.500008 
	C210.532089,43.073475 216.407745,43.912857 220.500000,41.500000 
	C224.988678,38.853405 227.867172,32.136929 226.500000,27.499998 
	C224.926590,22.163589 220.194000,18.612806 214.499969,18.501764 
	C213.833542,18.488768 213.166672,18.500000 212.500000,18.500000 
"/>
<path fill="none" class="Right_Stick" opacity="1.000000" stroke="#000000" stroke-linecap="round" stroke-linejoin="round" stroke-width="3.000000"
	d="
M257.500000,98.000000 
	C246.230667,101.995430 241.491211,108.054306 242.015488,117.999184 
	C242.387283,125.051552 248.009399,132.724060 256.484375,134.571732 
	C265.856750,136.615051 273.273407,131.210358 276.580841,125.547211 
	C280.803467,118.316971 279.007324,109.491928 274.534973,104.468849 
	C270.058594,99.441231 264.552795,97.494171 258.000000,98.000000 
"/>
</svg>